<svg preserveAspectRatio="none" overflow="visible" style="display: block;" width="60.0215" height="45.6929" viewBox="0 0 60.0215 45.6929" fill="none" xmlns="http://www.w3.org/2000/svg">
<g id="Gamepad">
<path id="Subtract" d="M42.3721 0.0812049C51.8213 -0.863599 60.021 6.55662 60.0215 16.0529V32.8019C60.0215 44.93 44.1709 49.5273 37.6816 39.2814C34.6557 34.5044 27.7429 34.3442 24.5 38.9767L23.7061 40.1105C16.3998 50.5473 0.000248857 45.3779 0 32.6378V16.0529C0.000518605 6.55674 8.20032 -0.863373 17.6494 0.0812049L28.5527 1.17105C29.5222 1.26798 30.4992 1.26796 31.4688 1.17105L42.3721 0.0812049ZM18.8447 12.4943C17.6885 12.4945 16.751 13.4318 16.751 14.588V18.0773H13.2617C12.1055 18.0775 11.168 19.0148 11.168 20.171C11.168 21.3273 12.1055 22.2646 13.2617 22.2648H16.751V25.755C16.7513 26.911 17.6887 27.8486 18.8447 27.8488C20.0009 27.8488 20.9381 26.9111 20.9385 25.755V22.2648H24.4287C25.5849 22.2646 26.5225 21.3273 26.5225 20.171C26.5224 19.0148 25.5849 18.0775 24.4287 18.0773H20.9385V14.588C20.9385 13.4317 20.0011 12.4943 18.8447 12.4943ZM41.1787 21.5675C39.637 21.5675 38.3868 22.8169 38.3867 24.3585C38.3867 25.9003 39.6369 27.1505 41.1787 27.1505C42.7204 27.1504 43.9697 25.9002 43.9697 24.3585C43.9696 22.817 42.7203 21.5677 41.1787 21.5675ZM46.7617 13.1925C45.22 13.1925 43.9699 14.4419 43.9697 15.9835C43.9697 17.5253 45.2199 18.7755 46.7617 18.7755C48.3035 18.7755 49.5537 17.5253 49.5537 15.9835C49.5536 14.4419 48.3034 13.1925 46.7617 13.1925Z" fill="white"/>
</g>
</svg>
